<svg class="hidden">
  <symbol xmlns="http://www.w3.org/2000/svg" viewBox="0 0 180 53" id="google-play">
    <g id="surface1">
      <path style=" stroke:none;fill-rule:nonzero;fill:rgb(6.27451%,5.882353%,5.098039%);fill-opacity:1;" d="M 173.328125 53.332031 L 6.671875 53.332031 C 3.003906 53.332031 0.00390625 50.332031 0.00390625 46.667969 L 0.00390625 6.667969 C 0.00390625 3 3.003906 0 6.671875 0 L 173.328125 0 C 176.996094 0 179.996094 3 179.996094 6.667969 L 179.996094 46.667969 C 179.996094 50.332031 176.996094 53.332031 173.328125 53.332031 "/>
      <path style=" stroke:none;fill-rule:nonzero;fill:rgb(63.529412%,63.529412%,63.137255%);fill-opacity:1;" d="M 173.328125 0 L 6.671875 0 C 3.003906 0 0.00390625 3 0.00390625 6.667969 L 0.00390625 46.667969 C 0.00390625 50.332031 3.003906 53.332031 6.671875 53.332031 L 173.328125 53.332031 C 176.996094 53.332031 179.996094 50.332031 179.996094 46.667969 L 179.996094 6.667969 C 179.996094 3 176.996094 0 173.328125 0 Z M 173.328125 1.066406 C 176.417969 1.066406 178.929688 3.578125 178.929688 6.667969 L 178.929688 46.667969 C 178.929688 49.753906 176.417969 52.265625 173.328125 52.265625 L 6.671875 52.265625 C 3.582031 52.265625 1.070312 49.753906 1.070312 46.667969 L 1.070312 6.667969 C 1.070312 3.578125 3.582031 1.066406 6.671875 1.066406 L 173.328125 1.066406 "/>
      <path style=" stroke:none;fill-rule:nonzero;fill:rgb(100%,100%,100%);fill-opacity:1;" d="M 142.578125 40 L 145.066406 40 L 145.066406 23.332031 L 142.578125 23.332031 Z M 164.988281 29.335938 L 162.136719 36.5625 L 162.050781 36.5625 L 159.09375 29.335938 L 156.410156 29.335938 L 160.851562 39.4375 L 158.320312 45.054688 L 160.914062 45.054688 L 167.753906 29.335938 Z M 150.878906 38.105469 C 150.066406 38.105469 148.929688 37.699219 148.929688 36.691406 C 148.929688 35.40625 150.34375 34.910156 151.566406 34.910156 C 152.660156 34.910156 153.175781 35.148438 153.839844 35.46875 C 153.644531 37.011719 152.316406 38.105469 150.878906 38.105469 Z M 151.179688 28.972656 C 149.378906 28.972656 147.515625 29.765625 146.742188 31.523438 L 148.949219 32.445312 C 149.421875 31.523438 150.300781 31.222656 151.222656 31.222656 C 152.507812 31.222656 153.816406 31.996094 153.839844 33.367188 L 153.839844 33.539062 C 153.386719 33.28125 152.421875 32.894531 151.246094 32.894531 C 148.863281 32.894531 146.441406 34.203125 146.441406 36.648438 C 146.441406 38.878906 148.390625 40.316406 150.578125 40.316406 C 152.25 40.316406 153.175781 39.566406 153.753906 38.683594 L 153.839844 38.683594 L 153.839844 39.972656 L 156.242188 39.972656 L 156.242188 33.582031 C 156.242188 30.621094 154.03125 28.972656 151.179688 28.972656 Z M 135.804688 31.363281 L 132.265625 31.363281 L 132.265625 25.652344 L 135.804688 25.652344 C 137.664062 25.652344 138.71875 27.191406 138.71875 28.507812 C 138.71875 29.800781 137.664062 31.363281 135.804688 31.363281 Z M 135.742188 23.332031 L 129.777344 23.332031 L 129.777344 40 L 132.265625 40 L 132.265625 33.683594 L 135.742188 33.683594 C 138.496094 33.683594 141.207031 31.691406 141.207031 28.507812 C 141.207031 25.328125 138.496094 23.332031 135.742188 23.332031 Z M 103.234375 38.109375 C 101.515625 38.109375 100.074219 36.667969 100.074219 34.695312 C 100.074219 32.695312 101.515625 31.234375 103.234375 31.234375 C 104.929688 31.234375 106.261719 32.695312 106.261719 34.695312 C 106.261719 36.667969 104.929688 38.109375 103.234375 38.109375 Z M 106.089844 30.269531 L 106.003906 30.269531 C 105.445312 29.601562 104.371094 29 103.019531 29 C 100.183594 29 97.582031 31.492188 97.582031 34.695312 C 97.582031 37.871094 100.183594 40.34375 103.019531 40.34375 C 104.371094 40.34375 105.445312 39.742188 106.003906 39.054688 L 106.089844 39.054688 L 106.089844 39.871094 C 106.089844 42.039062 104.929688 43.199219 103.0625 43.199219 C 101.535156 43.199219 100.589844 42.105469 100.203125 41.179688 L 98.035156 42.082031 C 98.65625 43.585938 100.3125 45.433594 103.0625 45.433594 C 105.984375 45.433594 108.453125 43.714844 108.453125 39.527344 L 108.453125 29.34375 L 106.089844 29.34375 Z M 110.171875 40 L 112.664062 40 L 112.664062 23.332031 L 110.171875 23.332031 Z M 116.335938 34.5 C 116.273438 32.308594 118.035156 31.191406 119.300781 31.191406 C 120.289062 31.191406 121.125 31.6875 121.40625 32.394531 Z M 124.070312 32.609375 C 123.597656 31.34375 122.15625 29 119.214844 29 C 116.292969 29 113.867188 31.300781 113.867188 34.671875 C 113.867188 37.851562 116.273438 40.34375 119.492188 40.34375 C 122.09375 40.34375 123.597656 38.753906 124.21875 37.832031 L 122.285156 36.542969 C 121.640625 37.488281 120.761719 38.109375 119.492188 38.109375 C 118.226562 38.109375 117.324219 37.53125 116.746094 36.390625 L 124.328125 33.253906 Z M 63.660156 30.742188 L 63.660156 33.148438 L 69.417969 33.148438 C 69.246094 34.5 68.792969 35.488281 68.105469 36.175781 C 67.269531 37.011719 65.957031 37.9375 63.660156 37.9375 C 60.117188 37.9375 57.34375 35.082031 57.34375 31.535156 C 57.34375 27.992188 60.117188 25.136719 63.660156 25.136719 C 65.570312 25.136719 66.96875 25.886719 68 26.855469 L 69.695312 25.15625 C 68.257812 23.78125 66.34375 22.730469 63.660156 22.730469 C 58.804688 22.730469 54.722656 26.683594 54.722656 31.535156 C 54.722656 36.390625 58.804688 40.34375 63.660156 40.34375 C 66.28125 40.34375 68.257812 39.484375 69.800781 37.875 C 71.390625 36.285156 71.886719 34.050781 71.886719 32.246094 C 71.886719 31.6875 71.84375 31.171875 71.757812 30.742188 Z M 78.433594 38.109375 C 76.714844 38.109375 75.230469 36.691406 75.230469 34.671875 C 75.230469 32.632812 76.714844 31.234375 78.433594 31.234375 C 80.148438 31.234375 81.632812 32.632812 81.632812 34.671875 C 81.632812 36.691406 80.148438 38.109375 78.433594 38.109375 Z M 78.433594 29 C 75.292969 29 72.738281 31.386719 72.738281 34.671875 C 72.738281 37.9375 75.292969 40.34375 78.433594 40.34375 C 81.566406 40.34375 84.125 37.9375 84.125 34.671875 C 84.125 31.386719 81.566406 29 78.433594 29 Z M 90.847656 38.109375 C 89.132812 38.109375 87.648438 36.691406 87.648438 34.671875 C 87.648438 32.632812 89.132812 31.234375 90.847656 31.234375 C 92.566406 31.234375 94.050781 32.632812 94.050781 34.671875 C 94.050781 36.691406 92.566406 38.109375 90.847656 38.109375 Z M 90.847656 29 C 87.714844 29 85.15625 31.386719 85.15625 34.671875 C 85.15625 37.9375 87.714844 40.34375 90.847656 40.34375 C 93.984375 40.34375 96.542969 37.9375 96.542969 34.671875 C 96.542969 31.386719 93.984375 29 90.847656 29 "/>
      <path style=" stroke:none;fill-rule:nonzero;fill:rgb(92.156863%,19.215686%,19.215686%);fill-opacity:1;" d="M 27.621094 25.898438 L 13.429688 40.964844 C 13.429688 40.96875 13.429688 40.96875 13.429688 40.972656 C 13.867188 42.609375 15.359375 43.816406 17.132812 43.816406 C 17.84375 43.816406 18.507812 43.621094 19.078125 43.285156 L 19.125 43.261719 L 35.101562 34.039062 L 27.621094 25.898438 "/>
      <path style=" stroke:none;fill-rule:nonzero;fill:rgb(96.470588%,71.372549%,4.313725%);fill-opacity:1;" d="M 41.984375 23.335938 L 41.96875 23.324219 L 35.070312 19.324219 L 27.300781 26.242188 L 35.097656 34.039062 L 41.960938 30.078125 C 43.164062 29.429688 43.980469 28.160156 43.980469 26.699219 C 43.980469 25.246094 43.175781 23.984375 41.984375 23.335938 "/>
      <path style=" stroke:none;fill-rule:nonzero;fill:rgb(34.117647%,47.058824%,77.254902%);fill-opacity:1;" d="M 13.425781 12.371094 C 13.339844 12.683594 13.296875 13.015625 13.296875 13.355469 L 13.296875 39.980469 C 13.296875 40.320312 13.339844 40.652344 13.425781 40.964844 L 28.109375 26.285156 L 13.425781 12.371094 "/>
      <path style=" stroke:none;fill-rule:nonzero;fill:rgb(23.137255%,67.843137%,28.627451%);fill-opacity:1;" d="M 27.726562 26.667969 L 35.074219 19.324219 L 19.113281 10.070312 C 18.535156 9.722656 17.855469 9.523438 17.132812 9.523438 C 15.359375 9.523438 13.863281 10.726562 13.425781 12.367188 C 13.425781 12.367188 13.425781 12.367188 13.425781 12.371094 L 27.726562 26.667969 "/>
      <path style="fill-rule:nonzero;fill:rgb(100%,100%,100%);fill-opacity:1;stroke-width:0.26666;stroke-linecap:butt;stroke-linejoin:miter;stroke:rgb(100%,100%,100%);stroke-opacity:1;stroke-miterlimit:10;" d="M 63.191406 13.042969 L 59.304688 13.042969 L 59.304688 14.003906 L 62.21875 14.003906 C 62.140625 14.789062 61.828125 15.40625 61.300781 15.855469 C 60.773438 16.300781 60.097656 16.527344 59.304688 16.527344 C 58.429688 16.527344 57.691406 16.222656 57.085938 15.621094 C 56.492188 15.003906 56.1875 14.238281 56.1875 13.320312 C 56.1875 12.402344 56.492188 11.640625 57.085938 11.023438 C 57.691406 10.417969 58.429688 10.117188 59.304688 10.117188 C 59.75 10.117188 60.179688 10.195313 60.570312 10.363281 C 60.960938 10.53125 61.277344 10.765625 61.523438 11.070313 L 62.261719 10.328125 C 61.925781 9.949219 61.5 9.65625 60.972656 9.445313 C 60.445312 9.230469 59.898438 9.128906 59.304688 9.128906 C 58.140625 9.128906 57.152344 9.535156 56.34375 10.339844 C 55.539062 11.148438 55.136719 12.144531 55.136719 13.320312 C 55.136719 14.5 55.539062 15.496094 56.34375 16.300781 C 57.152344 17.109375 58.140625 17.511719 59.304688 17.511719 C 60.527344 17.511719 61.5 17.121094 62.25 16.324219 C 62.910156 15.664062 63.25 14.765625 63.25 13.644531 C 63.25 13.457031 63.226562 13.253906 63.191406 13.042969 Z M 64.699219 9.308594 L 64.699219 17.332031 L 69.386719 17.332031 L 69.386719 16.347656 L 65.730469 16.347656 L 65.730469 13.800781 L 69.027344 13.800781 L 69.027344 12.839844 L 65.730469 12.839844 L 65.730469 10.296875 L 69.386719 10.296875 L 69.386719 9.308594 Z M 75.953125 10.296875 L 75.953125 9.308594 L 70.441406 9.308594 L 70.441406 10.296875 L 72.683594 10.296875 L 72.683594 17.332031 L 73.714844 17.332031 L 73.714844 10.296875 Z M 80.949219 9.308594 L 79.917969 9.308594 L 79.917969 17.332031 L 80.949219 17.332031 Z M 87.753906 10.296875 L 87.753906 9.308594 L 82.238281 9.308594 L 82.238281 10.296875 L 84.480469 10.296875 L 84.480469 17.332031 L 85.511719 17.332031 L 85.511719 10.296875 Z M 98.160156 10.351563 C 97.363281 9.535156 96.390625 9.128906 95.222656 9.128906 C 94.058594 9.128906 93.082031 9.535156 92.285156 10.339844 C 91.492188 11.136719 91.101562 12.132812 91.101562 13.320312 C 91.101562 14.507812 91.492188 15.507812 92.285156 16.300781 C 93.082031 17.109375 94.058594 17.511719 95.222656 17.511719 C 96.378906 17.511719 97.363281 17.109375 98.160156 16.300781 C 98.957031 15.507812 99.347656 14.507812 99.347656 13.320312 C 99.347656 12.144531 98.957031 11.148438 98.160156 10.351563 Z M 93.027344 11.023438 C 93.621094 10.417969 94.347656 10.117188 95.222656 10.117188 C 96.097656 10.117188 96.828125 10.417969 97.410156 11.023438 C 98.003906 11.617188 98.296875 12.390625 98.296875 13.320312 C 98.296875 14.253906 98.003906 15.023438 97.410156 15.617188 C 96.828125 16.222656 96.097656 16.527344 95.222656 16.527344 C 94.347656 16.527344 93.621094 16.222656 93.027344 15.617188 C 92.445312 15.011719 92.152344 14.253906 92.152344 13.320312 C 92.152344 12.390625 92.445312 11.628906 93.027344 11.023438 Z M 101.796875 12.335938 L 101.753906 10.789063 L 101.796875 10.789063 L 105.875 17.332031 L 106.953125 17.332031 L 106.953125 9.308594 L 105.921875 9.308594 L 105.921875 14.003906 L 105.964844 15.550781 L 105.921875 15.550781 L 102.023438 9.308594 L 100.765625 9.308594 L 100.765625 17.332031 L 101.796875 17.332031 Z M 101.796875 12.335938 " transform="matrix(1,0,0,1,0,-0.000000000000003553)"/>
    </g>
  </symbol>
  <symbol id="app-store" viewBox="0 0 119.66407 40" xmlns="http://www.w3.org/2000/svg">
    <title>Download_on_the_App_Store_Badge_US-UK_RGB_blk_4SVG_092917</title>
    <g>
      <g>
        <g>
          <path d="M110.13477,0H9.53468c-.3667,0-.729,0-1.09473.002-.30615.002-.60986.00781-.91895.0127A13.21476,13.21476,0,0,0,5.5171.19141a6.66509,6.66509,0,0,0-1.90088.627A6.43779,6.43779,0,0,0,1.99757,1.99707,6.25844,6.25844,0,0,0,.81935,3.61816a6.60119,6.60119,0,0,0-.625,1.90332,12.993,12.993,0,0,0-.1792,2.002C.00587,7.83008.00489,8.1377,0,8.44434V31.5586c.00489.3105.00587.6113.01515.9219a12.99232,12.99232,0,0,0,.1792,2.0019,6.58756,6.58756,0,0,0,.625,1.9043A6.20778,6.20778,0,0,0,1.99757,38.001a6.27445,6.27445,0,0,0,1.61865,1.1787,6.70082,6.70082,0,0,0,1.90088.6308,13.45514,13.45514,0,0,0,2.0039.1768c.30909.0068.6128.0107.91895.0107C8.80567,40,9.168,40,9.53468,40H110.13477c.3594,0,.7246,0,1.084-.002.3047,0,.6172-.0039.9219-.0107a13.279,13.279,0,0,0,2-.1768,6.80432,6.80432,0,0,0,1.9082-.6308,6.27742,6.27742,0,0,0,1.6172-1.1787,6.39482,6.39482,0,0,0,1.1816-1.6143,6.60413,6.60413,0,0,0,.6191-1.9043,13.50643,13.50643,0,0,0,.1856-2.0019c.0039-.3106.0039-.6114.0039-.9219.0078-.3633.0078-.7246.0078-1.0938V9.53613c0-.36621,0-.72949-.0078-1.09179,0-.30664,0-.61426-.0039-.9209a13.5071,13.5071,0,0,0-.1856-2.002,6.6177,6.6177,0,0,0-.6191-1.90332,6.46619,6.46619,0,0,0-2.7988-2.7998,6.76754,6.76754,0,0,0-1.9082-.627,13.04394,13.04394,0,0,0-2-.17676c-.3047-.00488-.6172-.01074-.9219-.01269-.3594-.002-.7246-.002-1.084-.002Z" style="fill: #a6a6a6"/>
          <path d="M8.44483,39.125c-.30468,0-.602-.0039-.90429-.0107a12.68714,12.68714,0,0,1-1.86914-.1631,5.88381,5.88381,0,0,1-1.65674-.5479,5.40573,5.40573,0,0,1-1.397-1.0166,5.32082,5.32082,0,0,1-1.02051-1.3965,5.72186,5.72186,0,0,1-.543-1.6572,12.41351,12.41351,0,0,1-.1665-1.875c-.00634-.2109-.01464-.9131-.01464-.9131V8.44434S.88185,7.75293.8877,7.5498a12.37039,12.37039,0,0,1,.16553-1.87207,5.7555,5.7555,0,0,1,.54346-1.6621A5.37349,5.37349,0,0,1,2.61183,2.61768,5.56543,5.56543,0,0,1,4.01417,1.59521a5.82309,5.82309,0,0,1,1.65332-.54394A12.58589,12.58589,0,0,1,7.543.88721L8.44532.875H111.21387l.9131.0127a12.38493,12.38493,0,0,1,1.8584.16259,5.93833,5.93833,0,0,1,1.6709.54785,5.59374,5.59374,0,0,1,2.415,2.41993,5.76267,5.76267,0,0,1,.5352,1.64892,12.995,12.995,0,0,1,.1738,1.88721c.0029.2832.0029.5874.0029.89014.0079.375.0079.73193.0079,1.09179V30.4648c0,.3633,0,.7178-.0079,1.0752,0,.3252,0,.6231-.0039.9297a12.73126,12.73126,0,0,1-.1709,1.8535,5.739,5.739,0,0,1-.54,1.67,5.48029,5.48029,0,0,1-1.0156,1.3857,5.4129,5.4129,0,0,1-1.3994,1.0225,5.86168,5.86168,0,0,1-1.668.5498,12.54218,12.54218,0,0,1-1.8692.1631c-.2929.0068-.5996.0107-.8974.0107l-1.084.002Z"/>
        </g>
        <g id="_Group_" data-name="&lt;Group&gt;">
          <g id="_Group_2" data-name="&lt;Group&gt;">
            <g id="_Group_3" data-name="&lt;Group&gt;">
              <path id="_Path_" data-name="&lt;Path&gt;" d="M24.76888,20.30068a4.94881,4.94881,0,0,1,2.35656-4.15206,5.06566,5.06566,0,0,0-3.99116-2.15768c-1.67924-.17626-3.30719,1.00483-4.1629,1.00483-.87227,0-2.18977-.98733-3.6085-.95814a5.31529,5.31529,0,0,0-4.47292,2.72787c-1.934,3.34842-.49141,8.26947,1.3612,10.97608.9269,1.32535,2.01018,2.8058,3.42763,2.7533,1.38706-.05753,1.9051-.88448,3.5794-.88448,1.65876,0,2.14479.88448,3.591.8511,1.48838-.02416,2.42613-1.33124,3.32051-2.66914a10.962,10.962,0,0,0,1.51842-3.09251A4.78205,4.78205,0,0,1,24.76888,20.30068Z" style="fill: #fff"/>
              <path id="_Path_2" data-name="&lt;Path&gt;" d="M22.03725,12.21089a4.87248,4.87248,0,0,0,1.11452-3.49062,4.95746,4.95746,0,0,0-3.20758,1.65961,4.63634,4.63634,0,0,0-1.14371,3.36139A4.09905,4.09905,0,0,0,22.03725,12.21089Z" style="fill: #fff"/>
            </g>
          </g>
          <g>
            <path d="M42.30227,27.13965h-4.7334l-1.13672,3.35645H34.42727l4.4834-12.418h2.083l4.4834,12.418H43.438ZM38.0591,25.59082h3.752l-1.84961-5.44727h-.05176Z" style="fill: #fff"/>
            <path d="M55.15969,25.96973c0,2.81348-1.50586,4.62109-3.77832,4.62109a3.0693,3.0693,0,0,1-2.84863-1.584h-.043v4.48438h-1.8584V21.44238H48.4302v1.50586h.03418a3.21162,3.21162,0,0,1,2.88281-1.60059C53.645,21.34766,55.15969,23.16406,55.15969,25.96973Zm-1.91016,0c0-1.833-.94727-3.03809-2.39258-3.03809-1.41992,0-2.375,1.23047-2.375,3.03809,0,1.82422.95508,3.0459,2.375,3.0459C52.30227,29.01563,53.24953,27.81934,53.24953,25.96973Z" style="fill: #fff"/>
            <path d="M65.12453,25.96973c0,2.81348-1.50586,4.62109-3.77832,4.62109a3.0693,3.0693,0,0,1-2.84863-1.584h-.043v4.48438h-1.8584V21.44238H58.395v1.50586h.03418A3.21162,3.21162,0,0,1,61.312,21.34766C63.60988,21.34766,65.12453,23.16406,65.12453,25.96973Zm-1.91016,0c0-1.833-.94727-3.03809-2.39258-3.03809-1.41992,0-2.375,1.23047-2.375,3.03809,0,1.82422.95508,3.0459,2.375,3.0459C62.26711,29.01563,63.21438,27.81934,63.21438,25.96973Z" style="fill: #fff"/>
            <path d="M71.71047,27.03613c.1377,1.23145,1.334,2.04,2.96875,2.04,1.56641,0,2.69336-.80859,2.69336-1.91895,0-.96387-.67969-1.541-2.28906-1.93652l-1.60937-.3877c-2.28027-.55078-3.33887-1.61719-3.33887-3.34766,0-2.14258,1.86719-3.61426,4.51855-3.61426,2.624,0,4.42285,1.47168,4.4834,3.61426h-1.876c-.1123-1.23926-1.13672-1.9873-2.63379-1.9873s-2.52148.75684-2.52148,1.8584c0,.87793.6543,1.39453,2.25488,1.79l1.36816.33594c2.54785.60254,3.60645,1.626,3.60645,3.44238,0,2.32324-1.85059,3.77832-4.79395,3.77832-2.75391,0-4.61328-1.4209-4.7334-3.667Z" style="fill: #fff"/>
            <path d="M83.34621,19.2998v2.14258h1.72168v1.47168H83.34621v4.99121c0,.77539.34473,1.13672,1.10156,1.13672a5.80752,5.80752,0,0,0,.61133-.043v1.46289a5.10351,5.10351,0,0,1-1.03223.08594c-1.833,0-2.54785-.68848-2.54785-2.44434V22.91406H80.16262V21.44238H81.479V19.2998Z" style="fill: #fff"/>
            <path d="M86.065,25.96973c0-2.84863,1.67773-4.63867,4.29395-4.63867,2.625,0,4.29492,1.79,4.29492,4.63867,0,2.85645-1.66113,4.63867-4.29492,4.63867C87.72609,30.6084,86.065,28.82617,86.065,25.96973Zm6.69531,0c0-1.9541-.89551-3.10742-2.40137-3.10742s-2.40039,1.16211-2.40039,3.10742c0,1.96191.89453,3.10645,2.40039,3.10645S92.76027,27.93164,92.76027,25.96973Z" style="fill: #fff"/>
            <path d="M96.18606,21.44238h1.77246v1.541h.043a2.1594,2.1594,0,0,1,2.17773-1.63574,2.86616,2.86616,0,0,1,.63672.06934v1.73828a2.59794,2.59794,0,0,0-.835-.1123,1.87264,1.87264,0,0,0-1.93652,2.083v5.37012h-1.8584Z" style="fill: #fff"/>
            <path d="M109.3843,27.83691c-.25,1.64355-1.85059,2.77148-3.89844,2.77148-2.63379,0-4.26855-1.76465-4.26855-4.5957,0-2.83984,1.64355-4.68164,4.19043-4.68164,2.50488,0,4.08008,1.7207,4.08008,4.46582v.63672h-6.39453v.1123a2.358,2.358,0,0,0,2.43555,2.56445,2.04834,2.04834,0,0,0,2.09082-1.27344Zm-6.28223-2.70215h4.52637a2.1773,2.1773,0,0,0-2.2207-2.29785A2.292,2.292,0,0,0,103.10207,25.13477Z" style="fill: #fff"/>
          </g>
        </g>
      </g>
      <g id="_Group_4" data-name="&lt;Group&gt;">
        <g>
          <path d="M37.82619,8.731a2.63964,2.63964,0,0,1,2.80762,2.96484c0,1.90625-1.03027,3.002-2.80762,3.002H35.67092V8.731Zm-1.22852,5.123h1.125a1.87588,1.87588,0,0,0,1.96777-2.146,1.881,1.881,0,0,0-1.96777-2.13379h-1.125Z" style="fill: #fff"/>
          <path d="M41.68068,12.44434a2.13323,2.13323,0,1,1,4.24707,0,2.13358,2.13358,0,1,1-4.24707,0Zm3.333,0c0-.97607-.43848-1.54687-1.208-1.54687-.77246,0-1.207.5708-1.207,1.54688,0,.98389.43457,1.55029,1.207,1.55029C44.57522,13.99463,45.01369,13.42432,45.01369,12.44434Z" style="fill: #fff"/>
          <path d="M51.57326,14.69775h-.92187l-.93066-3.31641h-.07031l-.92676,3.31641h-.91309l-1.24121-4.50293h.90137l.80664,3.436h.06641l.92578-3.436h.85254l.92578,3.436h.07031l.80273-3.436h.88867Z" style="fill: #fff"/>
          <path d="M53.85354,10.19482H54.709v.71533h.06641a1.348,1.348,0,0,1,1.34375-.80225,1.46456,1.46456,0,0,1,1.55859,1.6748v2.915h-.88867V12.00586c0-.72363-.31445-1.0835-.97168-1.0835a1.03294,1.03294,0,0,0-1.0752,1.14111v2.63428h-.88867Z" style="fill: #fff"/>
          <path d="M59.09377,8.437h.88867v6.26074h-.88867Z" style="fill: #fff"/>
          <path d="M61.21779,12.44434a2.13346,2.13346,0,1,1,4.24756,0,2.1338,2.1338,0,1,1-4.24756,0Zm3.333,0c0-.97607-.43848-1.54687-1.208-1.54687-.77246,0-1.207.5708-1.207,1.54688,0,.98389.43457,1.55029,1.207,1.55029C64.11232,13.99463,64.5508,13.42432,64.5508,12.44434Z" style="fill: #fff"/>
          <path d="M66.4009,13.42432c0-.81055.60352-1.27783,1.6748-1.34424l1.21973-.07031v-.38867c0-.47559-.31445-.74414-.92187-.74414-.49609,0-.83984.18213-.93848.50049h-.86035c.09082-.77344.81836-1.26953,1.83984-1.26953,1.12891,0,1.76563.562,1.76563,1.51318v3.07666h-.85547v-.63281h-.07031a1.515,1.515,0,0,1-1.35254.707A1.36026,1.36026,0,0,1,66.4009,13.42432Zm2.89453-.38477v-.37646l-1.09961.07031c-.62012.0415-.90137.25244-.90137.64941,0,.40527.35156.64111.835.64111A1.0615,1.0615,0,0,0,69.29543,13.03955Z" style="fill: #fff"/>
          <path d="M71.34816,12.44434c0-1.42285.73145-2.32422,1.86914-2.32422a1.484,1.484,0,0,1,1.38086.79h.06641V8.437h.88867v6.26074h-.85156v-.71143h-.07031a1.56284,1.56284,0,0,1-1.41406.78564C72.0718,14.772,71.34816,13.87061,71.34816,12.44434Zm.918,0c0,.95508.4502,1.52979,1.20313,1.52979.749,0,1.21191-.583,1.21191-1.52588,0-.93848-.46777-1.52979-1.21191-1.52979C72.72121,10.91846,72.26613,11.49707,72.26613,12.44434Z" style="fill: #fff"/>
          <path d="M79.23,12.44434a2.13323,2.13323,0,1,1,4.24707,0,2.13358,2.13358,0,1,1-4.24707,0Zm3.333,0c0-.97607-.43848-1.54687-1.208-1.54687-.77246,0-1.207.5708-1.207,1.54688,0,.98389.43457,1.55029,1.207,1.55029C82.12453,13.99463,82.563,13.42432,82.563,12.44434Z" style="fill: #fff"/>
          <path d="M84.66945,10.19482h.85547v.71533h.06641a1.348,1.348,0,0,1,1.34375-.80225,1.46456,1.46456,0,0,1,1.55859,1.6748v2.915H87.605V12.00586c0-.72363-.31445-1.0835-.97168-1.0835a1.03294,1.03294,0,0,0-1.0752,1.14111v2.63428h-.88867Z" style="fill: #fff"/>
          <path d="M93.51516,9.07373v1.1416h.97559v.74854h-.97559V13.2793c0,.47168.19434.67822.63672.67822a2.96657,2.96657,0,0,0,.33887-.02051v.74023a2.9155,2.9155,0,0,1-.4834.04541c-.98828,0-1.38184-.34766-1.38184-1.21582v-2.543h-.71484v-.74854h.71484V9.07373Z" style="fill: #fff"/>
          <path d="M95.70461,8.437h.88086v2.48145h.07031a1.3856,1.3856,0,0,1,1.373-.80664,1.48339,1.48339,0,0,1,1.55078,1.67871v2.90723H98.69v-2.688c0-.71924-.335-1.0835-.96289-1.0835a1.05194,1.05194,0,0,0-1.13379,1.1416v2.62988h-.88867Z" style="fill: #fff"/>
          <path d="M104.76125,13.48193a1.828,1.828,0,0,1-1.95117,1.30273A2.04531,2.04531,0,0,1,100.73,12.46045a2.07685,2.07685,0,0,1,2.07617-2.35254c1.25293,0,2.00879.856,2.00879,2.27V12.688h-3.17969v.0498a1.1902,1.1902,0,0,0,1.19922,1.29,1.07934,1.07934,0,0,0,1.07129-.5459Zm-3.126-1.45117h2.27441a1.08647,1.08647,0,0,0-1.1084-1.1665A1.15162,1.15162,0,0,0,101.63527,12.03076Z" style="fill: #fff"/>
        </g>
      </g>
    </g>
  </symbol>
</svg>